<svg xmlns="http://www.w3.org/2000/svg" viewBox="0 0 1020 510">
  <rect width="1020" height="510" fill="#0f172a"/>

  <!-- Background bar chart (decorative, from favicon motif) -->
  <rect x="60" y="260" width="36" height="110" rx="5" fill="#38bdf8" opacity="0.08"/>
  <rect x="108" y="210" width="36" height="160" rx="5" fill="#38bdf8" opacity="0.08"/>
  <rect x="156" y="160" width="36" height="210" rx="5" fill="#38bdf8" opacity="0.08"/>
  <rect x="204" y="120" width="36" height="250" rx="5" fill="#38bdf8" opacity="0.08"/>

  <rect x="780" y="260" width="36" height="110" rx="5" fill="#38bdf8" opacity="0.08"/>
  <rect x="828" y="210" width="36" height="160" rx="5" fill="#38bdf8" opacity="0.08"/>
  <rect x="876" y="160" width="36" height="210" rx="5" fill="#38bdf8" opacity="0.08"/>
  <rect x="924" y="120" width="36" height="250" rx="5" fill="#38bdf8" opacity="0.08"/>

  <!-- Site name -->
  <text x="510" y="210" text-anchor="middle" font-family="ui-monospace,monospace" font-size="64" font-weight="bold" fill="#e2e8f0">Low Hanging Data</text>

  <!-- Tagline -->
  <text x="510" y="280" text-anchor="middle" font-family="ui-monospace,monospace" font-size="20" fill="#38bdf8">Data analysis should be concise, transparent,</text>
  <text x="510" y="312" text-anchor="middle" font-family="ui-monospace,monospace" font-size="20" fill="#38bdf8">and focused on the low hanging fruit first.</text>

  <!-- Accent line -->
  <line x1="355" y1="345" x2="665" y2="345" stroke="#38bdf8" stroke-width="1" opacity="0.3"/>

  <!-- URL -->
  <text x="510" y="378" text-anchor="middle" font-family="ui-monospace,monospace" font-size="15" fill="#475569">lowhangingdata.com</text>

  <!-- Apple icon (brand mark) -->
  <circle cx="510" cy="430" r="14" fill="#f43f5e" opacity="0.8"/>
  <circle cx="505" cy="425" r="4" fill="#ffffff" opacity="0.3"/>
  <line x1="510" y1="416" x2="510" y2="412" stroke="#a16207" stroke-width="2.5" stroke-linecap="round"/>
  <ellipse cx="517" cy="410" rx="6" ry="2.5" fill="#22c55e" transform="rotate(20 517 410)" opacity="0.9"/>
</svg>
