<svg xmlns="http://www.w3.org/2000/svg" viewBox="0 0 1020 510">
  <rect width="1020" height="510" fill="#0f172a"/>

  <!-- Title -->
  <text x="510" y="58" text-anchor="middle" font-family="ui-monospace,monospace" font-size="28" font-weight="bold" fill="#e2e8f0">Visualizing Data with</text>
  <text x="510" y="96" text-anchor="middle" font-family="ui-monospace,monospace" font-size="38" font-weight="bold" fill="#38bdf8">Python</text>

  <!-- Top-left: Line chart -->
  <rect x="40" y="114" width="445" height="172" rx="12" fill="#071828" stroke="#38bdf8" stroke-width="1.5"/>
  <text x="66" y="134" font-family="ui-monospace,monospace" font-size="10" fill="#38bdf8">matplotlib  ·  line chart</text>
  <line x1="70" y1="144" x2="70" y2="266" stroke="#38bdf8" stroke-width="1" opacity="0.25"/>
  <line x1="70" y1="266" x2="464" y2="266" stroke="#38bdf8" stroke-width="1" opacity="0.25"/>
  <!-- Line chart path: upward trend with volatility -->
  <polyline points="75,248 110,242 145,232 175,237 212,222 248,210 282,216 318,200 355,185 390,191 425,174 462,168" fill="none" stroke="#38bdf8" stroke-width="2.5" stroke-linejoin="round"/>
  <polygon points="75,248 110,242 145,232 175,237 212,222 248,210 282,216 318,200 355,185 390,191 425,174 462,168 462,266 75,266" fill="#38bdf8" opacity="0.06"/>
  <text x="258" y="280" text-anchor="middle" font-family="ui-monospace,monospace" font-size="9" fill="#475569">AAPL daily close  ·  time →  price</text>

  <!-- Top-right: Bar chart -->
  <rect x="535" y="114" width="445" height="172" rx="12" fill="#0d1a00" stroke="#22c55e" stroke-width="1.5"/>
  <text x="561" y="134" font-family="ui-monospace,monospace" font-size="10" fill="#22c55e">seaborn  ·  bar chart</text>
  <line x1="565" y1="144" x2="565" y2="266" stroke="#22c55e" stroke-width="1" opacity="0.25"/>
  <line x1="565" y1="266" x2="964" y2="266" stroke="#22c55e" stroke-width="1" opacity="0.25"/>
  <!-- Bars -->
  <rect x="590" y="192" width="52" height="74" rx="3" fill="#22c55e" opacity="0.65"/>
  <rect x="658" y="174" width="52" height="92" rx="3" fill="#38bdf8" opacity="0.65"/>
  <rect x="726" y="212" width="52" height="54" rx="3" fill="#f59e0b" opacity="0.65"/>
  <rect x="794" y="181" width="52" height="85" rx="3" fill="#22c55e" opacity="0.65"/>
  <rect x="862" y="200" width="52" height="66" rx="3" fill="#38bdf8" opacity="0.65"/>
  <text x="616" y="280" text-anchor="middle" font-family="ui-monospace,monospace" font-size="9" fill="#475569">AAPL</text>
  <text x="684" y="280" text-anchor="middle" font-family="ui-monospace,monospace" font-size="9" fill="#475569">MSFT</text>
  <text x="752" y="280" text-anchor="middle" font-family="ui-monospace,monospace" font-size="9" fill="#475569">GOOG</text>
  <text x="820" y="280" text-anchor="middle" font-family="ui-monospace,monospace" font-size="9" fill="#475569">AMZN</text>
  <text x="888" y="280" text-anchor="middle" font-family="ui-monospace,monospace" font-size="9" fill="#475569">NVDA</text>

  <!-- Bottom-left: Scatter plot -->
  <rect x="40" y="296" width="445" height="168" rx="12" fill="#1a1000" stroke="#f59e0b" stroke-width="1.5"/>
  <text x="66" y="316" font-family="ui-monospace,monospace" font-size="10" fill="#f59e0b">seaborn  ·  scatter + regression</text>
  <line x1="70" y1="322" x2="70" y2="446" stroke="#f59e0b" stroke-width="1" opacity="0.25"/>
  <line x1="70" y1="446" x2="464" y2="446" stroke="#f59e0b" stroke-width="1" opacity="0.25"/>
  <!-- Scatter points AAPL -->
  <circle cx="112" cy="422" r="4" fill="#38bdf8" opacity="0.8"/>
  <circle cx="132" cy="410" r="4" fill="#38bdf8" opacity="0.8"/>
  <circle cx="155" cy="400" r="4" fill="#38bdf8" opacity="0.8"/>
  <circle cx="178" cy="390" r="4" fill="#38bdf8" opacity="0.8"/>
  <circle cx="200" cy="380" r="4" fill="#38bdf8" opacity="0.8"/>
  <!-- MSFT -->
  <circle cx="235" cy="408" r="4" fill="#f59e0b" opacity="0.8"/>
  <circle cx="258" cy="394" r="4" fill="#f59e0b" opacity="0.8"/>
  <circle cx="280" cy="382" r="4" fill="#f59e0b" opacity="0.8"/>
  <circle cx="304" cy="370" r="4" fill="#f59e0b" opacity="0.8"/>
  <!-- NVDA -->
  <circle cx="338" cy="390" r="4" fill="#22c55e" opacity="0.8"/>
  <circle cx="360" cy="372" r="4" fill="#22c55e" opacity="0.8"/>
  <circle cx="385" cy="358" r="4" fill="#22c55e" opacity="0.8"/>
  <circle cx="410" cy="342" r="4" fill="#22c55e" opacity="0.8"/>
  <!-- Regression line -->
  <line x1="95" y1="432" x2="445" y2="335" stroke="#f59e0b" stroke-width="1.5" stroke-dasharray="5,4" opacity="0.55"/>
  <text x="258" y="460" text-anchor="middle" font-family="ui-monospace,monospace" font-size="9" fill="#475569">volume vs. absolute return</text>

  <!-- Bottom-right: Heatmap (3x3 simplified) -->
  <rect x="535" y="296" width="445" height="168" rx="12" fill="#0e0818" stroke="#a855f7" stroke-width="1.5"/>
  <text x="561" y="316" font-family="ui-monospace,monospace" font-size="10" fill="#a855f7">seaborn  ·  correlation heatmap</text>
  <!-- Row/col labels -->
  <text x="624" y="338" font-family="ui-monospace,monospace" font-size="9" fill="#475569">AAPL</text>
  <text x="678" y="338" font-family="ui-monospace,monospace" font-size="9" fill="#475569">MSFT</text>
  <text x="732" y="338" font-family="ui-monospace,monospace" font-size="9" fill="#475569">GOOG</text>
  <text x="787" y="338" font-family="ui-monospace,monospace" font-size="9" fill="#475569">AMZN</text>
  <text x="841" y="338" font-family="ui-monospace,monospace" font-size="9" fill="#475569">NVDA</text>
  <text x="561" y="360" font-family="ui-monospace,monospace" font-size="9" fill="#475569">AAPL</text>
  <text x="561" y="390" font-family="ui-monospace,monospace" font-size="9" fill="#475569">MSFT</text>
  <text x="561" y="420" font-family="ui-monospace,monospace" font-size="9" fill="#475569">GOOG</text>
  <text x="561" y="450" font-family="ui-monospace,monospace" font-size="9" fill="#475569">AMZN</text>
  <!-- Heatmap cells (5 cols x 4 rows shown) -->
  <rect x="614" y="344" width="44" height="24" rx="2" fill="#1e40af" opacity="0.9"/><text x="636" y="361" text-anchor="middle" font-family="ui-monospace,monospace" font-size="8" fill="#e2e8f0">1.00</text>
  <rect x="662" y="344" width="44" height="24" rx="2" fill="#1e40af" opacity="0.65"/><text x="684" y="361" text-anchor="middle" font-family="ui-monospace,monospace" font-size="8" fill="#e2e8f0">.82</text>
  <rect x="710" y="344" width="44" height="24" rx="2" fill="#1e40af" opacity="0.5"/><text x="732" y="361" text-anchor="middle" font-family="ui-monospace,monospace" font-size="8" fill="#e2e8f0">.74</text>
  <rect x="758" y="344" width="44" height="24" rx="2" fill="#1e40af" opacity="0.42"/><text x="780" y="361" text-anchor="middle" font-family="ui-monospace,monospace" font-size="8" fill="#e2e8f0">.67</text>
  <rect x="806" y="344" width="44" height="24" rx="2" fill="#1e40af" opacity="0.32"/><text x="828" y="361" text-anchor="middle" font-family="ui-monospace,monospace" font-size="8" fill="#e2e8f0">.51</text>
  <rect x="614" y="372" width="44" height="24" rx="2" fill="#1e40af" opacity="0.65"/><text x="636" y="389" text-anchor="middle" font-family="ui-monospace,monospace" font-size="8" fill="#e2e8f0">.82</text>
  <rect x="662" y="372" width="44" height="24" rx="2" fill="#1e40af" opacity="0.9"/><text x="684" y="389" text-anchor="middle" font-family="ui-monospace,monospace" font-size="8" fill="#e2e8f0">1.00</text>
  <rect x="710" y="372" width="44" height="24" rx="2" fill="#1e40af" opacity="0.55"/><text x="732" y="389" text-anchor="middle" font-family="ui-monospace,monospace" font-size="8" fill="#e2e8f0">.77</text>
  <rect x="758" y="372" width="44" height="24" rx="2" fill="#1e40af" opacity="0.4"/><text x="780" y="389" text-anchor="middle" font-family="ui-monospace,monospace" font-size="8" fill="#e2e8f0">.63</text>
  <rect x="806" y="372" width="44" height="24" rx="2" fill="#1e40af" opacity="0.28"/><text x="828" y="389" text-anchor="middle" font-family="ui-monospace,monospace" font-size="8" fill="#e2e8f0">.46</text>
  <rect x="614" y="400" width="44" height="24" rx="2" fill="#1e40af" opacity="0.5"/><text x="636" y="417" text-anchor="middle" font-family="ui-monospace,monospace" font-size="8" fill="#e2e8f0">.74</text>
  <rect x="662" y="400" width="44" height="24" rx="2" fill="#1e40af" opacity="0.55"/><text x="684" y="417" text-anchor="middle" font-family="ui-monospace,monospace" font-size="8" fill="#e2e8f0">.77</text>
  <rect x="710" y="400" width="44" height="24" rx="2" fill="#1e40af" opacity="0.9"/><text x="732" y="417" text-anchor="middle" font-family="ui-monospace,monospace" font-size="8" fill="#e2e8f0">1.00</text>
  <rect x="758" y="400" width="44" height="24" rx="2" fill="#1e40af" opacity="0.5"/><text x="780" y="417" text-anchor="middle" font-family="ui-monospace,monospace" font-size="8" fill="#e2e8f0">.72</text>
  <rect x="806" y="400" width="44" height="24" rx="2" fill="#1e40af" opacity="0.24"/><text x="828" y="417" text-anchor="middle" font-family="ui-monospace,monospace" font-size="8" fill="#e2e8f0">.43</text>
  <rect x="614" y="428" width="44" height="24" rx="2" fill="#1e40af" opacity="0.42"/><text x="636" y="445" text-anchor="middle" font-family="ui-monospace,monospace" font-size="8" fill="#e2e8f0">.67</text>
  <rect x="662" y="428" width="44" height="24" rx="2" fill="#1e40af" opacity="0.4"/><text x="684" y="445" text-anchor="middle" font-family="ui-monospace,monospace" font-size="8" fill="#e2e8f0">.63</text>
  <rect x="710" y="428" width="44" height="24" rx="2" fill="#1e40af" opacity="0.5"/><text x="732" y="445" text-anchor="middle" font-family="ui-monospace,monospace" font-size="8" fill="#e2e8f0">.72</text>
  <rect x="758" y="428" width="44" height="24" rx="2" fill="#1e40af" opacity="0.9"/><text x="780" y="445" text-anchor="middle" font-family="ui-monospace,monospace" font-size="8" fill="#e2e8f0">1.00</text>
  <rect x="806" y="428" width="44" height="24" rx="2" fill="#1e40af" opacity="0.34"/><text x="828" y="445" text-anchor="middle" font-family="ui-monospace,monospace" font-size="8" fill="#e2e8f0">.55</text>

  <!-- Footer -->
  <text x="510" y="484" text-anchor="middle" font-family="ui-monospace,monospace" font-size="13" fill="#334155">matplotlib  ·  seaborn  ·  plotly  —  static  ·  interactive  ·  publication-ready</text>
</svg>
