<svg xmlns="http://www.w3.org/2000/svg" viewBox="0 0 1020 510">
  <rect width="1020" height="510" fill="#0f172a"/>

  <!-- Title -->
  <text x="510" y="58" text-anchor="middle" font-family="ui-monospace,monospace" font-size="28" font-weight="bold" fill="#e2e8f0">Low-Hanging Data Sources for</text>
  <text x="510" y="96" text-anchor="middle" font-family="ui-monospace,monospace" font-size="38" font-weight="bold" fill="#38bdf8">Stock Prediction</text>

  <!-- Table frame -->
  <rect x="40" y="112" width="940" height="330" rx="12" fill="#071828" stroke="#38bdf8" stroke-width="1.5"/>

  <!-- Header row -->
  <rect x="40" y="112" width="940" height="38" rx="12" fill="#38bdf8" opacity="0.14"/>
  <rect x="40" y="134" width="940" height="16" fill="#38bdf8" opacity="0.14"/>
  <text x="66" y="137" font-family="ui-monospace,monospace" font-size="12" font-weight="bold" fill="#38bdf8">Source</text>
  <text x="300" y="137" font-family="ui-monospace,monospace" font-size="12" font-weight="bold" fill="#38bdf8">Access</text>
  <text x="460" y="137" font-family="ui-monospace,monospace" font-size="12" font-weight="bold" fill="#38bdf8">Effort</text>
  <text x="580" y="137" font-family="ui-monospace,monospace" font-size="12" font-weight="bold" fill="#38bdf8">Signal</text>
  <text x="700" y="137" font-family="ui-monospace,monospace" font-size="12" font-weight="bold" fill="#38bdf8">Horizon</text>
  <text x="840" y="137" font-family="ui-monospace,monospace" font-size="12" font-weight="bold" fill="#38bdf8">Priority</text>

  <!-- Col dividers -->
  <line x1="285" y1="112" x2="285" y2="442" stroke="#38bdf8" stroke-width="1" opacity="0.12"/>
  <line x1="445" y1="112" x2="445" y2="442" stroke="#38bdf8" stroke-width="1" opacity="0.12"/>
  <line x1="565" y1="112" x2="565" y2="442" stroke="#38bdf8" stroke-width="1" opacity="0.12"/>
  <line x1="685" y1="112" x2="685" y2="442" stroke="#38bdf8" stroke-width="1" opacity="0.12"/>
  <line x1="825" y1="112" x2="825" y2="442" stroke="#38bdf8" stroke-width="1" opacity="0.12"/>

  <!-- Row 1: Google Trends -->
  <rect x="41" y="150" width="938" height="38" fill="#22c55e" opacity="0.05"/>
  <text x="66" y="174" font-family="ui-monospace,monospace" font-size="12" fill="#e2e8f0">Google Trends</text>
  <text x="300" y="174" font-family="ui-monospace,monospace" font-size="11" fill="#475569">pytrends</text>
  <rect x="458" y="160" width="48" height="16" rx="8" fill="#22c55e" opacity="0.2" stroke="#22c55e" stroke-width="1"/>
  <text x="482" y="172" text-anchor="middle" font-family="ui-monospace,monospace" font-size="10" fill="#22c55e">low</text>
  <rect x="573" y="160" width="60" height="16" rx="8" fill="#22c55e" opacity="0.2" stroke="#22c55e" stroke-width="1"/>
  <text x="603" y="172" text-anchor="middle" font-family="ui-monospace,monospace" font-size="10" fill="#22c55e">medium</text>
  <text x="700" y="174" font-family="ui-monospace,monospace" font-size="11" fill="#475569">1–3 days</text>
  <rect x="840" y="160" width="80" height="16" rx="8" fill="#22c55e" opacity="0.25" stroke="#22c55e" stroke-width="1"/>
  <text x="880" y="172" text-anchor="middle" font-family="ui-monospace,monospace" font-size="10" font-weight="bold" fill="#22c55e">★ start here</text>

  <!-- Row 2: Wikipedia -->
  <text x="66" y="212" font-family="ui-monospace,monospace" font-size="12" fill="#e2e8f0">Wikipedia Views</text>
  <text x="300" y="212" font-family="ui-monospace,monospace" font-size="11" fill="#475569">REST API</text>
  <rect x="458" y="198" width="48" height="16" rx="8" fill="#22c55e" opacity="0.2" stroke="#22c55e" stroke-width="1"/>
  <text x="482" y="210" text-anchor="middle" font-family="ui-monospace,monospace" font-size="10" fill="#22c55e">low</text>
  <rect x="573" y="198" width="60" height="16" rx="8" fill="#22c55e" opacity="0.2" stroke="#22c55e" stroke-width="1"/>
  <text x="603" y="210" text-anchor="middle" font-family="ui-monospace,monospace" font-size="10" fill="#22c55e">medium</text>
  <text x="700" y="212" font-family="ui-monospace,monospace" font-size="11" fill="#475569">1–3 days</text>
  <rect x="840" y="198" width="80" height="16" rx="8" fill="#22c55e" opacity="0.25" stroke="#22c55e" stroke-width="1"/>
  <text x="880" y="210" text-anchor="middle" font-family="ui-monospace,monospace" font-size="10" font-weight="bold" fill="#22c55e">★ start here</text>

  <!-- Row 3: Reddit/Twitter sentiment -->
  <rect x="41" y="226" width="938" height="38" fill="#38bdf8" opacity="0.04"/>
  <text x="66" y="250" font-family="ui-monospace,monospace" font-size="12" fill="#e2e8f0">Reddit Sentiment</text>
  <text x="300" y="250" font-family="ui-monospace,monospace" font-size="11" fill="#475569">PRAW + VADER</text>
  <rect x="458" y="236" width="60" height="16" rx="8" fill="#f59e0b" opacity="0.2" stroke="#f59e0b" stroke-width="1"/>
  <text x="488" y="248" text-anchor="middle" font-family="ui-monospace,monospace" font-size="10" fill="#f59e0b">medium</text>
  <rect x="573" y="236" width="60" height="16" rx="8" fill="#f59e0b" opacity="0.2" stroke="#f59e0b" stroke-width="1"/>
  <text x="603" y="248" text-anchor="middle" font-family="ui-monospace,monospace" font-size="10" fill="#f59e0b">medium</text>
  <text x="700" y="250" font-family="ui-monospace,monospace" font-size="11" fill="#475569">2–6 days</text>
  <rect x="840" y="236" width="60" height="16" rx="8" fill="#f59e0b" opacity="0.2" stroke="#f59e0b" stroke-width="1"/>
  <text x="870" y="248" text-anchor="middle" font-family="ui-monospace,monospace" font-size="10" fill="#f59e0b">medium</text>

  <!-- Row 4: News headlines -->
  <text x="66" y="288" font-family="ui-monospace,monospace" font-size="12" fill="#e2e8f0">News Headlines (NLP)</text>
  <text x="300" y="288" font-family="ui-monospace,monospace" font-size="11" fill="#475569">scrape / API</text>
  <rect x="458" y="274" width="60" height="16" rx="8" fill="#f59e0b" opacity="0.2" stroke="#f59e0b" stroke-width="1"/>
  <text x="488" y="286" text-anchor="middle" font-family="ui-monospace,monospace" font-size="10" fill="#f59e0b">medium</text>
  <rect x="573" y="274" width="48" height="16" rx="8" fill="#22c55e" opacity="0.2" stroke="#22c55e" stroke-width="1"/>
  <text x="597" y="286" text-anchor="middle" font-family="ui-monospace,monospace" font-size="10" fill="#22c55e">high</text>
  <text x="700" y="288" font-family="ui-monospace,monospace" font-size="11" fill="#475569">hours–days</text>
  <rect x="840" y="274" width="60" height="16" rx="8" fill="#f59e0b" opacity="0.2" stroke="#f59e0b" stroke-width="1"/>
  <text x="870" y="286" text-anchor="middle" font-family="ui-monospace,monospace" font-size="10" fill="#f59e0b">medium</text>

  <!-- Row 5: VIX -->
  <rect x="41" y="302" width="938" height="38" fill="#38bdf8" opacity="0.04"/>
  <text x="66" y="326" font-family="ui-monospace,monospace" font-size="12" fill="#e2e8f0">VIX (Market Fear)</text>
  <text x="300" y="326" font-family="ui-monospace,monospace" font-size="11" fill="#475569">yfinance</text>
  <rect x="458" y="312" width="48" height="16" rx="8" fill="#22c55e" opacity="0.2" stroke="#22c55e" stroke-width="1"/>
  <text x="482" y="324" text-anchor="middle" font-family="ui-monospace,monospace" font-size="10" fill="#22c55e">low</text>
  <rect x="573" y="312" width="48" height="16" rx="8" fill="#22c55e" opacity="0.2" stroke="#22c55e" stroke-width="1"/>
  <text x="597" y="324" text-anchor="middle" font-family="ui-monospace,monospace" font-size="10" fill="#22c55e">high</text>
  <text x="700" y="326" font-family="ui-monospace,monospace" font-size="11" fill="#475569">intraday</text>
  <rect x="840" y="312" width="80" height="16" rx="8" fill="#22c55e" opacity="0.25" stroke="#22c55e" stroke-width="1"/>
  <text x="880" y="324" text-anchor="middle" font-family="ui-monospace,monospace" font-size="10" font-weight="bold" fill="#22c55e">★ start here</text>

  <!-- Row 6: SEC EDGAR -->
  <text x="66" y="364" font-family="ui-monospace,monospace" font-size="12" fill="#e2e8f0">SEC EDGAR Filings</text>
  <text x="300" y="364" font-family="ui-monospace,monospace" font-size="11" fill="#475569">EDGAR REST API</text>
  <rect x="458" y="350" width="48" height="16" rx="8" fill="#f43f5e" opacity="0.2" stroke="#f43f5e" stroke-width="1"/>
  <text x="482" y="362" text-anchor="middle" font-family="ui-monospace,monospace" font-size="10" fill="#f43f5e">high</text>
  <rect x="573" y="350" width="48" height="16" rx="8" fill="#f59e0b" opacity="0.2" stroke="#f59e0b" stroke-width="1"/>
  <text x="597" y="362" text-anchor="middle" font-family="ui-monospace,monospace" font-size="10" fill="#f59e0b">event</text>
  <text x="700" y="364" font-family="ui-monospace,monospace" font-size="11" fill="#475569">quarterly</text>
  <rect x="840" y="350" width="60" height="16" rx="8" fill="#475569" opacity="0.2" stroke="#475569" stroke-width="1"/>
  <text x="870" y="362" text-anchor="middle" font-family="ui-monospace,monospace" font-size="10" fill="#475569">advanced</text>

  <!-- Row 7: Options flow -->
  <rect x="41" y="378" width="938" height="38" fill="#38bdf8" opacity="0.04"/>
  <text x="66" y="402" font-family="ui-monospace,monospace" font-size="12" fill="#e2e8f0">Options Flow</text>
  <text x="300" y="402" font-family="ui-monospace,monospace" font-size="11" fill="#475569">paid API</text>
  <rect x="458" y="388" width="48" height="16" rx="8" fill="#f43f5e" opacity="0.2" stroke="#f43f5e" stroke-width="1"/>
  <text x="482" y="400" text-anchor="middle" font-family="ui-monospace,monospace" font-size="10" fill="#f43f5e">high</text>
  <rect x="573" y="388" width="48" height="16" rx="8" fill="#22c55e" opacity="0.2" stroke="#22c55e" stroke-width="1"/>
  <text x="597" y="400" text-anchor="middle" font-family="ui-monospace,monospace" font-size="10" fill="#22c55e">high</text>
  <text x="700" y="402" font-family="ui-monospace,monospace" font-size="11" fill="#475569">intraday</text>
  <rect x="840" y="388" width="60" height="16" rx="8" fill="#475569" opacity="0.2" stroke="#475569" stroke-width="1"/>
  <text x="870" y="400" text-anchor="middle" font-family="ui-monospace,monospace" font-size="10" fill="#475569">advanced</text>

  <!-- Tagline -->
  <text x="510" y="470" text-anchor="middle" font-family="ui-monospace,monospace" font-size="13" fill="#334155">pick the lowest-effort, highest-signal source first · build the pipeline · iterate</text>
</svg>
