<svg xmlns="http://www.w3.org/2000/svg" viewBox="0 0 1020 510">
  <rect width="1020" height="510" fill="#0f172a"/>

  <!-- Title -->
  <text x="510" y="72" text-anchor="middle" font-family="ui-monospace,monospace" font-size="28" font-weight="bold" fill="#e2e8f0">Building Your First</text>
  <text x="510" y="112" text-anchor="middle" font-family="ui-monospace,monospace" font-size="38" font-weight="bold" fill="#38bdf8">Data Pipeline</text>

  <!-- COLLECT box -->
  <rect x="55" y="185" width="210" height="165" rx="14" fill="#071a2e" stroke="#38bdf8" stroke-width="2"/>
  <ellipse cx="160" cy="232" rx="38" ry="11" fill="#38bdf8" opacity="0.8"/>
  <rect x="122" y="232" width="76" height="36" fill="#38bdf8" opacity="0.35"/>
  <ellipse cx="160" cy="268" rx="38" ry="11" fill="#38bdf8" opacity="0.8"/>
  <line x1="122" y1="232" x2="122" y2="268" stroke="#38bdf8" stroke-width="1" opacity="0.4"/>
  <line x1="198" y1="232" x2="198" y2="268" stroke="#38bdf8" stroke-width="1" opacity="0.4"/>
  <text x="160" y="310" text-anchor="middle" font-family="ui-monospace,monospace" font-size="15" font-weight="bold" fill="#38bdf8">COLLECT</text>
  <text x="160" y="330" text-anchor="middle" font-family="ui-monospace,monospace" font-size="11" fill="#475569">raw data sources</text>

  <!-- Arrow 1 -->
  <line x1="270" y1="267" x2="375" y2="267" stroke="#f59e0b" stroke-width="3" stroke-dasharray="8,5"/>
  <polygon points="368,260 385,267 368,274" fill="#f59e0b"/>

  <!-- TRANSFORM box -->
  <rect x="388" y="185" width="244" height="165" rx="14" fill="#1a1200" stroke="#f59e0b" stroke-width="2"/>
  <!-- Gear -->
  <circle cx="510" cy="255" r="33" fill="none" stroke="#f59e0b" stroke-width="3"/>
  <circle cx="510" cy="255" r="14" fill="#f59e0b" opacity="0.9"/>
  <rect x="505" y="215" width="10" height="14" rx="3" fill="#f59e0b"/>
  <rect x="505" y="281" width="10" height="14" rx="3" fill="#f59e0b"/>
  <rect x="469" y="250" width="14" height="10" rx="3" fill="#f59e0b"/>
  <rect x="537" y="250" width="14" height="10" rx="3" fill="#f59e0b"/>
  <rect x="480" y="222" width="10" height="14" rx="3" fill="#f59e0b" transform="rotate(-45 485 229)"/>
  <rect x="526" y="222" width="10" height="14" rx="3" fill="#f59e0b" transform="rotate(45 531 229)"/>
  <rect x="480" y="268" width="10" height="14" rx="3" fill="#f59e0b" transform="rotate(45 485 275)"/>
  <rect x="526" y="268" width="10" height="14" rx="3" fill="#f59e0b" transform="rotate(-45 531 275)"/>
  <text x="510" y="310" text-anchor="middle" font-family="ui-monospace,monospace" font-size="15" font-weight="bold" fill="#f59e0b">TRANSFORM</text>
  <text x="510" y="330" text-anchor="middle" font-family="ui-monospace,monospace" font-size="11" fill="#475569">clean &amp; reshape</text>

  <!-- Arrow 2 -->
  <line x1="637" y1="267" x2="742" y2="267" stroke="#22c55e" stroke-width="3" stroke-dasharray="8,5"/>
  <polygon points="735,260 752,267 735,274" fill="#22c55e"/>

  <!-- LOAD box -->
  <rect x="755" y="185" width="210" height="165" rx="14" fill="#001a0a" stroke="#22c55e" stroke-width="2"/>
  <ellipse cx="860" cy="232" rx="38" ry="11" fill="#22c55e" opacity="0.8"/>
  <rect x="822" y="232" width="76" height="36" fill="#22c55e" opacity="0.3"/>
  <ellipse cx="860" cy="268" rx="38" ry="11" fill="#22c55e" opacity="0.8"/>
  <path d="M843 250 L857 264 L882 236" fill="none" stroke="#0f172a" stroke-width="4" stroke-linecap="round" stroke-linejoin="round"/>
  <text x="860" y="310" text-anchor="middle" font-family="ui-monospace,monospace" font-size="15" font-weight="bold" fill="#22c55e">LOAD</text>
  <text x="860" y="330" text-anchor="middle" font-family="ui-monospace,monospace" font-size="11" fill="#475569">store &amp; serve</text>

  <!-- Progress bar -->
  <rect x="55" y="400" width="910" height="5" rx="2.5" fill="#1e293b"/>
  <rect x="55" y="400" width="303" height="5" rx="2.5" fill="#38bdf8"/>
  <rect x="358" y="400" width="304" height="5" rx="2.5" fill="#f59e0b"/>
  <rect x="662" y="400" width="303" height="5" rx="2.5" fill="#22c55e"/>

  <text x="510" y="448" text-anchor="middle" font-family="ui-monospace,monospace" font-size="13" fill="#334155">automated · repeatable · reliable</text>
</svg>
